<svg id="Layer_1" data-name="Layer 1" xmlns="http://www.w3.org/2000/svg" viewBox="0 0 41.96 20"><defs><style>.cls-1{fill:#298cee;}.cls-2{fill:#fff;}</style></defs><rect class="cls-1" x="2.25" y="5.81" width="36.87" height="8.42" rx="3.7"/><path class="cls-2" d="M10.85,10.22h-.54v.94H10V8.84h.77a.9.9,0,0,1,.6.18.64.64,0,0,1,.21.52.62.62,0,0,1-.12.38.61.61,0,0,1-.32.24l.54,1v0h-.33ZM10.31,10h.47a.57.57,0,0,0,.36-.11.41.41,0,0,0,.13-.32.45.45,0,0,0-.12-.33.58.58,0,0,0-.37-.12h-.47Z"/><path class="cls-2" d="M12.68,11.19a.71.71,0,0,1-.57-.23.83.83,0,0,1-.22-.61v-.06a.93.93,0,0,1,.1-.45.71.71,0,0,1,.27-.32.73.73,0,0,1,.38-.11.63.63,0,0,1,.52.22.93.93,0,0,1,.19.63v.12H12.18a.71.71,0,0,0,.15.42.49.49,0,0,0,.36.15.57.57,0,0,0,.27-.06.75.75,0,0,0,.19-.17l.18.14A.74.74,0,0,1,12.68,11.19Zm0-1.54a.38.38,0,0,0-.3.13.66.66,0,0,0-.15.36h.86v0a.53.53,0,0,0-.12-.35A.37.37,0,0,0,12.64,9.65Z"/><path class="cls-2" d="M14.69,10.7a.2.2,0,0,0-.09-.18.86.86,0,0,0-.31-.12,1.73,1.73,0,0,1-.36-.11.51.51,0,0,1-.19-.16.38.38,0,0,1-.06-.22.48.48,0,0,1,.17-.36.76.76,0,0,1,.46-.14.73.73,0,0,1,.48.15A.48.48,0,0,1,15,10h-.3a.25.25,0,0,0-.1-.21.45.45,0,0,0-.51,0A.23.23,0,0,0,14,9.9a.18.18,0,0,0,.08.16,1.16,1.16,0,0,0,.31.11,1.94,1.94,0,0,1,.36.11.56.56,0,0,1,.2.17.41.41,0,0,1,.06.23.43.43,0,0,1-.18.37.72.72,0,0,1-.48.14.8.8,0,0,1-.36-.07.58.58,0,0,1-.25-.21.47.47,0,0,1-.09-.28h.29a.35.35,0,0,0,.12.24.5.5,0,0,0,.29.08.45.45,0,0,0,.27-.07A.19.19,0,0,0,14.69,10.7Z"/><path class="cls-2" d="M16.08,11.19a.74.74,0,0,1-.57-.23.88.88,0,0,1-.22-.61v-.06a1.06,1.06,0,0,1,.1-.45.8.8,0,0,1,.28-.32.7.7,0,0,1,.38-.11.65.65,0,0,1,.52.22,1,1,0,0,1,.18.63v.12H15.59a.6.6,0,0,0,.15.42.46.46,0,0,0,.36.15.53.53,0,0,0,.26-.06.61.61,0,0,0,.19-.17l.18.14A.72.72,0,0,1,16.08,11.19Zm0-1.54a.38.38,0,0,0-.3.13.66.66,0,0,0-.15.36h.86v0a.58.58,0,0,0-.12-.35A.37.37,0,0,0,16.05,9.65Z"/><path class="cls-2" d="M17.93,9.7h-.15a.38.38,0,0,0-.39.25v1.22h-.3V9.44h.29v.2a.44.44,0,0,1,.41-.23.25.25,0,0,1,.13,0Z"/><path class="cls-2" d="M18.79,10.76l.43-1.32h.3l-.62,1.72h-.22l-.62-1.72h.3Z"/><path class="cls-2" d="M20.84,11.16a.82.82,0,0,1,0-.18.67.67,0,0,1-.49.21.64.64,0,0,1-.42-.14.47.47,0,0,1-.16-.37.46.46,0,0,1,.21-.41.92.92,0,0,1,.57-.15h.29V10a.3.3,0,0,0-.1-.24.37.37,0,0,0-.27-.1.45.45,0,0,0-.26.08.26.26,0,0,0-.11.2h-.29a.4.4,0,0,1,.09-.25.54.54,0,0,1,.25-.19.74.74,0,0,1,.34-.07.7.7,0,0,1,.47.15.52.52,0,0,1,.17.41v.79a1,1,0,0,0,.06.38v0Zm-.49-.22a.53.53,0,0,0,.27-.08.45.45,0,0,0,.18-.18v-.35h-.23c-.36,0-.55.1-.55.31a.29.29,0,0,0,.1.22A.36.36,0,0,0,20.35,10.94Z"/><path class="cls-2" d="M22.38,9.7h-.14a.38.38,0,0,0-.39.25v1.22h-.3V9.44h.29v.2a.46.46,0,0,1,.41-.23.24.24,0,0,1,.13,0Z"/><path class="cls-2" d="M25,9.09H24.3v2.07H24V9.09h-.75V8.84H25Z"/><path class="cls-2" d="M26.25,11a.6.6,0,0,1-.5.2.54.54,0,0,1-.42-.16.69.69,0,0,1-.15-.47V9.44h.3v1.11c0,.26.1.39.32.39a.45.45,0,0,0,.45-.25V9.44h.29v1.72h-.28Z"/><path class="cls-2" d="M27.82,9.7h-.15a.38.38,0,0,0-.39.25v1.22H27V9.44h.28v.2a.44.44,0,0,1,.41-.23.24.24,0,0,1,.13,0Z"/><path class="cls-2" d="M28.37,9.44v.22a.61.61,0,0,1,.51-.25c.37,0,.55.2.55.61v1.14h-.29V10a.37.37,0,0,0-.09-.27.33.33,0,0,0-.26-.09.43.43,0,0,0-.25.07.55.55,0,0,0-.17.2v1.23h-.29V9.44Z"/><path class="cls-2" d="M29.81,10.28a1,1,0,0,1,.1-.45.65.65,0,0,1,.28-.31.67.67,0,0,1,.4-.11.75.75,0,0,1,.57.24,1,1,0,0,1,.22.65v0a1.06,1.06,0,0,1-.1.45.7.7,0,0,1-.28.31.68.68,0,0,1-.41.11A.71.71,0,0,1,30,11a.92.92,0,0,1-.22-.65Zm.29,0a.74.74,0,0,0,.14.46.43.43,0,0,0,.35.17.45.45,0,0,0,.36-.17.8.8,0,0,0,.13-.5A.71.71,0,0,0,31,9.83a.45.45,0,0,0-.71,0A.8.8,0,0,0,30.1,10.32Z"/></svg>