<svg id="Capa_1" data-name="Capa 1" xmlns="http://www.w3.org/2000/svg" viewBox="0 0 54.22 57.89"><defs><style>.cls-1{fill:#298cee;}</style></defs><g id="HIMC1w.tif"><path class="cls-1" d="M31.56,0a13.1,13.1,0,0,1,.75,3.07c.07,6.68,0,13.36,0,20v2.3c2.29,0,4.39-.09,6.49,0,.79.05,1.95.41,2.23,1a2.78,2.78,0,0,1-.56,2.37c-3.91,4.6-7.9,9.14-11.9,13.66-1.17,1.33-2.2,1.32-3.38,0-4-4.53-8-9.06-11.89-13.66a2.87,2.87,0,0,1-.54-2.39c.17-.5,1.31-.89,2-.94,2.1-.12,4.22,0,6.57,0,0-.77.09-1.44.09-2.12,0-6.81,0-13.62,0-20.43A12.09,12.09,0,0,1,22.3,0Z" transform="translate(0.22)"/><path class="cls-1" d="M1.85,57.89A5.89,5.89,0,0,1-.21,52.65c.13-4.17,0-8.34,0-12.68H7v10.5H46.8V40H54c0,5,.12,10-.11,15,0,1-1.45,1.94-2.23,2.9Z" transform="translate(0.22)"/></g></svg>