<svg id="Layer_1" data-name="Layer 1" xmlns="http://www.w3.org/2000/svg" viewBox="0 0 20 20"><defs><style>.cls-1{fill:none;stroke:#298cee;stroke-miterlimit:10;stroke-width:0.64px;}</style></defs><g id="CiuFKf.tif"><path class="cls-1" d="M3.45,15.55V6.82a.19.19,0,0,0,0-.07A1.64,1.64,0,0,1,4.72,5.42a5.56,5.56,0,0,1,.82,0h.14V5.24c0-.32,0-.65,0-1A.73.73,0,0,1,5.75,4a.59.59,0,0,1,.38-.27h.76c.36.14.45.28.45.68v1H12.9V5.24c0-.33,0-.66,0-1A.82.82,0,0,1,13,4a.6.6,0,0,1,.38-.28h.77a.59.59,0,0,1,.45.68v1h.56a1.67,1.67,0,0,1,1.62,1.3c0,.08,0,.15,0,.23v8.65a.05.05,0,0,1,0,0,1.59,1.59,0,0,1-.86,1.24,3.06,3.06,0,0,1-.58.2H4.85a1.66,1.66,0,0,1-1.33-1.19A2.86,2.86,0,0,1,3.45,15.55ZM4.56,9.28v.1c0,2,0,4,0,5.95a.59.59,0,0,0,.6.6h9.91a.55.55,0,0,0,.61-.61v-6Z"/></g></svg>