<svg id="Layer_1" data-name="Layer 1" xmlns="http://www.w3.org/2000/svg" viewBox="0 0 20 20"><defs><style>.cls-1{fill:none;stroke:#298cee;stroke-miterlimit:10;stroke-width:0.64px;}</style></defs><g id="_3BAooI.tif" data-name="3BAooI.tif"><path class="cls-1" d="M9.73,3.15h.54a1.15,1.15,0,0,1,.78,1.16c0,.3.14.38.38.5a5.7,5.7,0,0,1,1.42.87,4.28,4.28,0,0,1,1.34,3.18c0,1.14,0,2.28,0,3.42,0,.14,0,.33.1.42.43.45.9.88,1.35,1.32v.73H4.34V14c.4-.39.82-.75,1.19-1.16a1,1,0,0,0,.25-.59c0-1.17,0-2.34,0-3.51a4.24,4.24,0,0,1,2.85-4,.51.51,0,0,0,.28-.36A1.22,1.22,0,0,1,9.73,3.15Z"/><path class="cls-1" d="M9.63,16.85a1.51,1.51,0,0,1-1-1.38h2.75c0,.74-.45,1.08-1,1.38Z"/></g></svg>