<svg id="Layer_1" data-name="Layer 1" xmlns="http://www.w3.org/2000/svg" viewBox="0 0 20 20"><defs><style>.cls-1{fill:none;stroke:#298cee;stroke-miterlimit:10;stroke-width:0.64px;}</style></defs><g id="aGIZFQ.tif"><path class="cls-1" d="M9.56,3.1h.87l.1,0a10.24,10.24,0,0,1,1.13.19,6.9,6.9,0,0,1,5.16,5.74c0,.21.05.41.07.62v.73s0,.09,0,.14c0,.29-.07.58-.13.87a6.74,6.74,0,0,1-2.31,3.84,6.72,6.72,0,0,1-5.14,1.6,6.51,6.51,0,0,1-3.78-1.64A6.74,6.74,0,0,1,3.17,9a6.57,6.57,0,0,1,2-3.89A6.79,6.79,0,0,1,8.7,3.23ZM10,15l.58,0a5,5,0,0,0,3.51-2.1.19.19,0,0,0,0-.14,1.76,1.76,0,0,0-.14-.46,1.85,1.85,0,0,0-.68-.68,6.36,6.36,0,0,0-5.84-.39,3.52,3.52,0,0,0-1.12.66,1.36,1.36,0,0,0-.47.75.33.33,0,0,0,.06.29A5,5,0,0,0,10,15ZM7.93,7.23a2.07,2.07,0,1,0,4.13,0,2.07,2.07,0,0,0-4.13,0Z"/></g></svg>