<svg id="Layer_1" data-name="Layer 1" xmlns="http://www.w3.org/2000/svg" viewBox="0 0 20 20"><defs><style>.cls-1{fill:#298cee;}</style></defs><g id="eMt5sL.tif"><path class="cls-1" d="M10,3.33h.09a8.33,8.33,0,0,1,.78.54c1.1,1,2.2,1.9,3.29,2.87.9.8,1.79,1.63,2.69,2.44v.45c-.19.2-.35.46-.58.56a2.24,2.24,0,0,1-.78,0c0,1.77,0,3.6,0,5.43a1,1,0,0,1-.57,1H12.19a.81.81,0,0,1-.54-.89c0-1.18,0-2.35,0-3.52,0-.16,0-.32,0-.47h-3c0,1.3,0,2.56,0,3.82a1.09,1.09,0,0,1-.54,1.06H5.43a.9.9,0,0,1-.56-1c0-1.26,0-2.52,0-3.78V10l-.37.28a.69.69,0,0,1-1,0,3.82,3.82,0,0,1-.34-.36V9.45c.18-.18.34-.37.53-.55q2.73-2.5,5.47-5A6.3,6.3,0,0,1,10,3.33Z"/></g></svg>