<svg id="Layer_1" data-name="Layer 1" xmlns="http://www.w3.org/2000/svg" viewBox="0 0 79.08 30.47"><defs><style>.cls-1{fill:#298cee;}.cls-2{fill:#fff;}</style></defs><path d="M31.25,9.57a2.81,2.81,0,0,1,1.59.37,1.32,1.32,0,0,1,.56,1.19,1.35,1.35,0,0,1-.56,1.21,3,3,0,0,1-1.61.37h-.32v1.55H29.86V9.69q.34-.06.72-.09Zm.07.89h-.41v1.34h.32a1.76,1.76,0,0,0,.82-.15.57.57,0,0,0,.27-.55.63.63,0,0,0-.07-.32.48.48,0,0,0-.2-.2.86.86,0,0,0-.32-.11A2.54,2.54,0,0,0,31.32,10.46Z"/><path d="M37.1,14.14c-.17,0-.38.09-.65.14a5.73,5.73,0,0,1-.84.06,2,2,0,0,1-.75-.12,1.1,1.1,0,0,1-.47-.34,1.26,1.26,0,0,1-.25-.52,2.73,2.73,0,0,1-.07-.66v-2h1v1.84a1.52,1.52,0,0,0,.13.7.52.52,0,0,0,.48.21h.22l.22,0V10.74h1Z"/><path d="M37.87,12.53a2,2,0,0,1,.15-.82,1.55,1.55,0,0,1,.91-.94,1.72,1.72,0,0,1,.63-.12,1.53,1.53,0,0,1,1.18.46,1.86,1.86,0,0,1,.44,1.34c0,.06,0,.13,0,.19s0,.13,0,.19H38.9a.66.66,0,0,0,.28.49,1.16,1.16,0,0,0,.68.18,3.1,3.1,0,0,0,.54-.05,2.23,2.23,0,0,0,.43-.13l.14.81-.22.08-.29.07-.35.05a2.42,2.42,0,0,1-.38,0,2.12,2.12,0,0,1-.83-.14,1.5,1.5,0,0,1-.92-1A2.36,2.36,0,0,1,37.87,12.53Zm2.34-.38a1,1,0,0,0,0-.25.91.91,0,0,0-.11-.22.75.75,0,0,0-.2-.15.62.62,0,0,0-.29-.06.65.65,0,0,0-.29.06.75.75,0,0,0-.2.15.66.66,0,0,0-.12.22,1,1,0,0,0-.06.25Z"/><path d="M41.94,10.86a5.12,5.12,0,0,1,.66-.13,4.61,4.61,0,0,1,.84-.07,2,2,0,0,1,.75.12,1.17,1.17,0,0,1,.47.33,1.35,1.35,0,0,1,.25.51,3.16,3.16,0,0,1,.07.65v2H44V12.39a1.39,1.39,0,0,0-.12-.68.55.55,0,0,0-.48-.2h-.23l-.21,0v2.72h-1Z"/><path d="M45.85,9.87l1-.16v1H48v.83h-1.2v1.24a1,1,0,0,0,.11.5.51.51,0,0,0,.45.19l.33,0a1.4,1.4,0,0,0,.31-.09l.14.78a3.14,3.14,0,0,1-.4.13,2.76,2.76,0,0,1-.54.05,1.9,1.9,0,0,1-.68-.11,1,1,0,0,1-.42-.31,1.08,1.08,0,0,1-.23-.48,2.9,2.9,0,0,1-.06-.62Z"/><path d="M48.55,12.53a2.23,2.23,0,0,1,.14-.82,1.77,1.77,0,0,1,.38-.59,1.73,1.73,0,0,1,.54-.35,1.67,1.67,0,0,1,.62-.12,1.55,1.55,0,0,1,1.19.46,1.86,1.86,0,0,1,.43,1.34v.19c0,.07,0,.13,0,.19H49.57a.67.67,0,0,0,.29.49,1.16,1.16,0,0,0,.68.18,3.29,3.29,0,0,0,.54-.05,2.23,2.23,0,0,0,.43-.13l.14.81-.22.08-.3.07-.35.05a2.3,2.3,0,0,1-.37,0,2.12,2.12,0,0,1-.83-.14,1.58,1.58,0,0,1-.58-.38,1.53,1.53,0,0,1-.34-.58A2.36,2.36,0,0,1,48.55,12.53Zm2.34-.38a1,1,0,0,0,0-.25.94.94,0,0,0-.12-.22.58.58,0,0,0-.19-.15.73.73,0,0,0-.58,0,.62.62,0,0,0-.2.15.52.52,0,0,0-.12.22,1.82,1.82,0,0,0-.07.25Z"/><path d="M33.3,16.31v.89H31.9v3.74h-1V17.2h-1.4v-.89Z"/><path d="M35.56,18.31l-.32-.07a1.53,1.53,0,0,0-.38,0l-.23,0a.69.69,0,0,0-.19,0v2.68h-1V17.61a5.6,5.6,0,0,1,.63-.17,3.4,3.4,0,0,1,.81-.09h.2l.23,0,.22,0,.2.06Z"/><path d="M37.46,17.33a2.47,2.47,0,0,1,.73.1,1.14,1.14,0,0,1,.47.29,1.1,1.1,0,0,1,.26.46,2.58,2.58,0,0,1,.07.59v2.07a5.62,5.62,0,0,1-.6.11,4.85,4.85,0,0,1-.92.07,3,3,0,0,1-.62-.06,1.48,1.48,0,0,1-.48-.2.88.88,0,0,1-.3-.36,1.2,1.2,0,0,1-.11-.54,1.05,1.05,0,0,1,.12-.52,1.07,1.07,0,0,1,.33-.34,1.46,1.46,0,0,1,.48-.19,3.31,3.31,0,0,1,.55,0h.35l.24.05v-.1a.54.54,0,0,0-.15-.4.71.71,0,0,0-.54-.16,2.81,2.81,0,0,0-.5,0,2.47,2.47,0,0,0-.43.1l-.12-.8.22-.06.28-.05.32,0Zm.08,2.92h.28l.21,0v-.75l-.18,0h-.48a.71.71,0,0,0-.22.07.44.44,0,0,0-.15.12.42.42,0,0,0,0,.2.34.34,0,0,0,.16.33A.86.86,0,0,0,37.54,20.25Z"/><path d="M39.89,17.55a4.92,4.92,0,0,1,.66-.14,5.63,5.63,0,0,1,.84-.06,2.18,2.18,0,0,1,.74.11,1.21,1.21,0,0,1,.48.33,1.5,1.5,0,0,1,.24.51,2.71,2.71,0,0,1,.08.66v2h-1V19.08a1.27,1.27,0,0,0-.13-.68.49.49,0,0,0-.47-.2H41.1l-.21,0v2.71h-1Z"/><path d="M44.84,20.23a.93.93,0,0,0,.39-.06.2.2,0,0,0,.11-.2.25.25,0,0,0-.15-.21,2.63,2.63,0,0,0-.44-.21,2.41,2.41,0,0,1-.43-.18,1.07,1.07,0,0,1-.32-.22,1,1,0,0,1-.21-.31,1.16,1.16,0,0,1-.07-.44.94.94,0,0,1,.36-.78,1.62,1.62,0,0,1,1-.29,3.11,3.11,0,0,1,.62.06l.47.12-.18.78a2.9,2.9,0,0,0-.38-.11,2,2,0,0,0-.45,0c-.32,0-.47.08-.47.26a.3.3,0,0,0,0,.1.14.14,0,0,0,.08.09l.16.1.27.11a4.07,4.07,0,0,1,.54.24,1.58,1.58,0,0,1,.34.25.79.79,0,0,1,.17.31,1.46,1.46,0,0,1,0,.38.9.9,0,0,1-.39.79,1.94,1.94,0,0,1-1.11.27,3.4,3.4,0,0,1-.78-.08,3.61,3.61,0,0,1-.43-.14l.17-.81a3.13,3.13,0,0,0,.52.16A2.39,2.39,0,0,0,44.84,20.23Z"/><path d="M50.34,19.19a2.29,2.29,0,0,1-.12.76,1.58,1.58,0,0,1-.36.58,1.65,1.65,0,0,1-.58.37,2,2,0,0,1-.77.13,2.48,2.48,0,0,1-.38,0l-.39,0-.36-.06-.31-.08V15.92l1-.16v1.75a2.06,2.06,0,0,1,.35-.12,2.22,2.22,0,0,1,.38,0,1.78,1.78,0,0,1,.67.13,1.37,1.37,0,0,1,.48.38,1.7,1.7,0,0,1,.29.57A2.59,2.59,0,0,1,50.34,19.19Zm-1,0c0-.64-.23-1-.7-1a1.06,1.06,0,0,0-.31,0,.67.67,0,0,0-.24.1v1.81l.19,0h.24a.72.72,0,0,0,.62-.28A1.2,1.2,0,0,0,49.32,19.16Z"/><path d="M54.4,19.18a2.29,2.29,0,0,1-.12.76,1.74,1.74,0,0,1-.35.59,1.58,1.58,0,0,1-.54.37,1.85,1.85,0,0,1-.72.14,1.78,1.78,0,0,1-.7-.14,1.72,1.72,0,0,1-.55-.37,1.74,1.74,0,0,1-.35-.59,2.06,2.06,0,0,1-.13-.76,2.28,2.28,0,0,1,.13-.76,1.89,1.89,0,0,1,.36-.58,1.75,1.75,0,0,1,1.24-.51,1.75,1.75,0,0,1,.7.14,1.62,1.62,0,0,1,.55.37,1.7,1.7,0,0,1,.35.58A2.06,2.06,0,0,1,54.4,19.18Zm-1,0a1.29,1.29,0,0,0-.18-.73.66.66,0,0,0-1.05,0,1.5,1.5,0,0,0,0,1.46.65.65,0,0,0,1.05,0A1.29,1.29,0,0,0,53.38,19.18Z"/><path d="M57.29,18.31,57,18.24a1.58,1.58,0,0,0-.38,0l-.23,0a.77.77,0,0,0-.2,0v2.68h-1V17.61a5.6,5.6,0,0,1,.63-.17,3.35,3.35,0,0,1,.81-.09h.2l.22,0,.23,0,.19.06Z"/><path d="M61,20.83l-.3.08-.37.06L60,21a2.55,2.55,0,0,1-.38,0,2.13,2.13,0,0,1-.78-.13,1.39,1.39,0,0,1-.57-.36,1.5,1.5,0,0,1-.36-.58,2.19,2.19,0,0,1-.12-.75,2.68,2.68,0,0,1,.1-.78,1.69,1.69,0,0,1,.31-.58,1.38,1.38,0,0,1,.49-.37,1.78,1.78,0,0,1,.67-.13,2.1,2.1,0,0,1,.37,0,2.19,2.19,0,0,1,.33.12V15.92l1-.16Zm-2.25-1.67a1.2,1.2,0,0,0,.21.74.7.7,0,0,0,.61.28h.25l.19,0V18.34a.65.65,0,0,0-.25-.1,1,1,0,0,0-.3,0C59,18.2,58.77,18.52,58.77,19.16Z"/><path d="M63.22,17.33a2.54,2.54,0,0,1,.74.1,1.21,1.21,0,0,1,.47.29,1.09,1.09,0,0,1,.25.46,2.1,2.1,0,0,1,.08.59v2.07c-.15,0-.35.07-.6.11a4.85,4.85,0,0,1-.92.07,2.9,2.9,0,0,1-.62-.06,1.31,1.31,0,0,1-.48-.2.9.9,0,0,1-.31-.36,1.21,1.21,0,0,1-.1-.54,1.05,1.05,0,0,1,.12-.52.9.9,0,0,1,.33-.34,1.46,1.46,0,0,1,.48-.19,3.21,3.21,0,0,1,.55,0h.35l.24.05v-.1a.54.54,0,0,0-.15-.4.74.74,0,0,0-.54-.16,2.74,2.74,0,0,0-.5,0,2.1,2.1,0,0,0-.43.1l-.13-.8.22-.06.29-.05.32,0Zm.08,2.92h.29l.21,0v-.75l-.18,0h-.49a.65.65,0,0,0-.21.07.36.36,0,0,0-.15.12.33.33,0,0,0-.05.2.35.35,0,0,0,.15.33A.89.89,0,0,0,63.3,20.25Z"/><path d="M68.76,20.83l-.31.08-.36.06-.39,0a2.48,2.48,0,0,1-.38,0,2,2,0,0,1-.77-.13,1.5,1.5,0,0,1-.58-.36,1.78,1.78,0,0,1-.36-.58,2.19,2.19,0,0,1-.12-.75,2.67,2.67,0,0,1,.11-.78,1.68,1.68,0,0,1,.3-.58,1.42,1.42,0,0,1,.5-.37,1.69,1.69,0,0,1,.66-.13,2,2,0,0,1,.37,0,2.19,2.19,0,0,1,.33.12V15.92l1-.16Zm-2.25-1.67a1.27,1.27,0,0,0,.2.74.72.72,0,0,0,.62.28h.25l.18,0V18.34a.67.67,0,0,0-.24-.1,1,1,0,0,0-.3,0C66.74,18.2,66.51,18.52,66.51,19.16Z"/><path d="M73,19.18a2.06,2.06,0,0,1-.12.76,1.72,1.72,0,0,1-.34.59,1.62,1.62,0,0,1-.55.37,1.8,1.8,0,0,1-.71.14,1.75,1.75,0,0,1-.7-.14,1.53,1.53,0,0,1-.55-.37,1.74,1.74,0,0,1-.35-.59,2.29,2.29,0,0,1,0-1.52,1.89,1.89,0,0,1,.36-.58,1.62,1.62,0,0,1,.55-.37,1.74,1.74,0,0,1,.69-.14,1.78,1.78,0,0,1,.7.14,1.58,1.58,0,0,1,.54.37,1.72,1.72,0,0,1,.36.58A2.29,2.29,0,0,1,73,19.18Zm-1,0a1.29,1.29,0,0,0-.18-.73.67.67,0,0,0-1.06,0,1.57,1.57,0,0,0,0,1.46.66.66,0,0,0,1.06,0A1.29,1.29,0,0,0,72,19.18Z"/><path d="M75.87,18.31l-.31-.07a1.61,1.61,0,0,0-.39,0l-.22,0a.77.77,0,0,0-.2,0v2.68h-1V17.61a5.27,5.27,0,0,1,.64-.17,3.35,3.35,0,0,1,.81-.09h.19l.23,0,.23,0,.19.06Z"/><circle class="cls-1" cx="14.14" cy="15.23" r="10.54"/><path class="cls-2" d="M20.15,12.75h.55a.32.32,0,0,0,.28-.19.31.31,0,0,0-.07-.32l-1.53-1.48a.36.36,0,0,0-.15-.08l-2.9-.59H12L9,10.68a.44.44,0,0,0-.15.08L7.37,12.24a.28.28,0,0,0-.07.32.29.29,0,0,0,.27.19h.56l-.85,7.31a.33.33,0,0,0,.07.23.32.32,0,0,0,.22.1h3.16a.32.32,0,0,0,.22-.1.32.32,0,0,0,.07-.23l-.75-7.32h1.44V20a.15.15,0,0,0,.15.15h1.58a.15.15,0,0,0,.14-.15V12.74H18l-.76,7.32a.32.32,0,0,0,.08.23.29.29,0,0,0,.22.1H20.7a.29.29,0,0,0,.22-.1.3.3,0,0,0,.08-.23ZM7.9,19.8l.82-7h.95l.73,7.05Zm5.39-.92H12V12.77h1.28Zm-4-7.63,2.8-.58h4.2l2.79.58.94.91H8.3Zm8.64,8.55.72-7h.95l.82,7.05Z"/></svg>