<?xml version="1.0" encoding="utf-8"?>
<!-- Generator: Adobe Illustrator 24.1.1, SVG Export Plug-In . SVG Version: 6.00 Build 0)  -->
<svg version="1.1" id="Capa_1" xmlns="http://www.w3.org/2000/svg" xmlns:xlink="http://www.w3.org/1999/xlink" x="0px" y="0px"
	 viewBox="0 0 496 499" style="enable-background:new 0 0 496 499;" xml:space="preserve">
<g id="VXpWCR.tif_1_">
	<g>
		<path d="M-0.43,325.06c45.25-0.04,90.51-0.08,135.76-0.11c12.43-0.01,24.86,0,37.79,0c0,24.71,0,49.19,0,74.45
			c2.21,0,3.91,0,5.62,0c21.5,0.01,42.99,0.01,64.49,0.05c1.59,0,3.19,0.28,4.78,0.43l-0.15-0.17c0,16.53,0,33.07,0,49.6l0.14-0.14
			c-24.78,0-49.55,0-74.77,0c0,16.98,0,33.26,0,49.54c-57.89,0-115.77,0-173.66,0C-0.43,440.83-0.43,382.95-0.43,325.06z
			 M123.37,448.87c0-24.88,0-49.48,0-74.01c-24.86,0-49.35,0-73.88,0c0,24.8,0,49.28,0,74.01
			C74.18,448.87,98.54,448.87,123.37,448.87z"/>
		<path d="M222.58,100.81c0.13,0.47,0.36,0.93,0.36,1.4c-0.05,24.5-0.12,49.01-0.18,73.51c-74.4-0.02-148.79-0.04-223.19-0.07
			c0-57.8,0-115.61,0-173.66c57.89,0,115.77,0,173.66,0c0,32.92,0,65.84,0,99.02c16.98,0,33.26,0,49.54,0L222.58,100.81z
			 M123.35,125.91c0-24.92,0-49.5,0-73.99c-24.86,0-49.31,0-73.95,0c0,24.8,0,49.26,0,73.99
			C74.12,125.91,98.58,125.91,123.35,125.91z"/>
		<path d="M496.29,175.66c-35.36,0.04-70.73,0.08-106.09,0.11c-20.51,0.02-41.02,0.02-61.53,0.03c-1.89,0-3.78,0-5.97,0
			c-0.09-1.75-0.2-3-0.2-4.24c0-55.71,0.01-111.43,0.02-167.14c0-0.81,0.08-1.61,0.12-2.42c57.89,0,115.77,0,173.66,0
			C496.29,59.89,496.29,117.77,496.29,175.66z M446.38,126.03c0-24.94,0-49.42,0-74.17c-24.79,0-49.27,0-73.92,0
			c0,24.82,0,49.42,0,74.17C397.2,126.03,421.57,126.03,446.38,126.03z"/>
		<path d="M346.88,498.72c-32.99,0-65.97,0-98.96,0c0.02-16.51,0.04-33.03,0.07-49.54l-0.14,0.14c16.41,0,32.82,0,49.61,0
			c0-17.06,0-33.34,0-49.61l-0.15,0.16c1.76-0.14,3.52-0.41,5.28-0.42c46.5-0.04,93.01-0.05,139.51-0.04c1.59,0,3.19,0.29,4.78,0.45
			l-0.14-0.1c0,16.38,0,32.77,0,49.62c8.67,0,16.51,0,24.32,0c0,16.77,0,33.06,0,49.35c-24.58,0-49.15,0-73.73,0
			c0-16.41,0-32.81,0-49.21c-17.3,0-33.51,0-50.11,0c0,2.61,0.01,4.85,0,7.09C347.11,470.64,346.99,484.68,346.88,498.72z"/>
		<path d="M273.15,2c-0.11,1.93-0.31,3.85-0.31,5.78c-0.02,29.07-0.01,58.14-0.01,87.21c0,1.9,0,3.8,0,6.31
			c-3.73,0-6.91,0.03-10.1-0.01c-13.38-0.15-26.76-0.31-40.14-0.47c0,0,0.18,0.21,0.18,0.21c0.08-25.77,0.19-51.54,0.23-77.31
			C223,16.47,222.81,9.24,222.7,2C239.52,2,256.34,2,273.15,2z"/>
		<path d="M-0.43,225.13c8.39,0.11,16.78,0.3,25.17,0.31c22.62,0.03,45.24-0.01,67.86-0.02c1.9,0,3.79,0,6,0c0,16.8,0,33.02,0,49.83
			c-2.2,0-4.1,0-6,0c-29.08,0-58.16-0.01-87.24,0.01c-1.93,0-3.85,0.2-5.78,0.31C-0.43,258.77-0.43,241.95-0.43,225.13z"/>
		<path d="M496.29,399.76c-16.51,0-33.03-0.01-49.54-0.01c0,0,0.14,0.1,0.14,0.1c0-16.88,0-33.76,0-50.64l-0.13,0.15
			c16.51-0.02,33.01-0.03,49.52-0.05C496.29,366.13,496.29,382.95,496.29,399.76z"/>
		<path d="M273.11,225.07c5,0.13,9.99,0.37,14.99,0.38c51.07,0.02,102.14-0.01,153.22-0.02c1.58,0,3.17,0,5.45,0
			c0,41.65,0,82.79,0,123.93l0.13-0.15c-16.28,0.07-32.56,0.15-48.84,0.19c-0.24,0-0.49-0.38-1.2-0.97c0-23.93,0-48.24,0-72.87
			c-16.68,0-32.88,0-49.67,0c0,16.5,0,32.71,0,49.43c-17,0-33.43,0-49.85,0l0.13,0.14c0-16.44,0-32.88,0-49.84
			c-8.27,0-16.11,0-24.35,0C273.11,258.2,273.11,241.64,273.11,225.07z"/>
		<path d="M222.26,224.7c0.22,0.61,0.64,1.21,0.64,1.82c0.04,15.96,0.03,31.93,0.03,48.33c-24.66,0-49.08,0-73.92,0
			c0-16.24,0-32.44,0-49.39c1.77,0,3.47,0,5.18,0c20.99,0,41.99,0.02,62.98-0.03c1.72,0,3.43-0.44,5.15-0.66
			C222.33,224.78,222.26,224.7,222.26,224.7z"/>
		<path d="M248.01,399.88c0-24.79,0-49.57,0-74.74c16.7,0,33.08,0,49.45,0c0,0-0.13-0.14-0.13-0.14c0,24.95-0.01,49.91-0.01,74.86
			l0.15-0.16c-16.54,0-33.07,0-49.61,0.01L248.01,399.88z"/>
		<path d="M222.6,175.57c16.46,0,32.92,0,50.61,0c0,16.84,0,33.22,0,49.6c-16.22,0.08-32.43,0.17-48.65,0.21
			c-0.76,0-1.53-0.43-2.3-0.67c-0.01,0,0.07,0.07,0.06,0.06c0.21-0.42,0.61-0.84,0.61-1.25
			C222.84,207.54,222.72,191.55,222.6,175.57z"/>
	</g>
</g>
</svg>
